<svg xmlns="http://www.w3.org/2000/svg" width="80" height="80" viewBox="0 0 80 80">
  <g id="calendar" transform="translate(0 0)">
    <path id="Path_37" data-name="Path 37" d="M66.174,8a5.269,5.269,0,0,1,5.264,5.276V65.564a5.269,5.269,0,0,1-5.264,5.276H8.264A5.269,5.269,0,0,1,3,65.564V13.276A5.269,5.269,0,0,1,8.264,8Z" transform="translate(-1.715 -0.292)" fill="none"/>
    <ellipse id="Ellipse_43" data-name="Ellipse 43" cx="13.5" cy="15" rx="13.5" ry="15" transform="translate(50.965 50)" fill="rgba(255,153,51,0.5)"/>
    <path id="Path_39" data-name="Path 39" d="M61.97,42.209A14.112,14.112,0,0,1,42.209,61.97,14.118,14.118,0,1,0,61.97,42.209Z" transform="translate(11.082 11.082)" fill="#eb831b"/>
    <path id="Path_40" data-name="Path 40" d="M71.438,20.846H3V13.139A5.2,5.2,0,0,1,8.264,8H66.174a5.2,5.2,0,0,1,5.264,5.139Z" transform="translate(-1.715 -0.292)" fill="#135a70"/>
    <path id="Path_41" data-name="Path 41" d="M12.569,15.846A2.569,2.569,0,0,1,10,13.277V5.569a2.569,2.569,0,1,1,5.139,0v7.708A2.569,2.569,0,0,1,12.569,15.846Z" transform="translate(0.277 -1.715)" fill="rgba(255,153,51,0.5)"/>
    <path id="Path_42" data-name="Path 42" d="M23.569,15.846A2.569,2.569,0,0,1,21,13.277V5.569a2.569,2.569,0,0,1,5.139,0v7.708A2.569,2.569,0,0,1,23.569,15.846Z" transform="translate(3.954 -1.715)" fill="rgba(255,153,51,0.5)"/>
    <path id="Path_43" data-name="Path 43" d="M35.569,15.846A2.569,2.569,0,0,1,33,13.277V5.569a2.569,2.569,0,1,1,5.139,0v7.708A2.569,2.569,0,0,1,35.569,15.846Z" transform="translate(7.714 -1.715)" fill="rgba(255,153,51,0.5)"/>
    <path id="Path_44" data-name="Path 44" d="M46.569,15.846A2.569,2.569,0,0,1,44,13.277V5.569a2.569,2.569,0,1,1,5.139,0v7.708A2.569,2.569,0,0,1,46.569,15.846Z" transform="translate(11.161 -1.715)" fill="rgba(255,153,51,0.5)"/>
    <path id="Path_45" data-name="Path 45" d="M9,23h7.708v7.708H9Z" transform="translate(-0.008 4.602)" fill="rgba(106,220,255,0.5)"/>
    <path id="Path_46" data-name="Path 46" d="M20,23h7.708v7.708H20Z" transform="translate(3.659 4.602)" fill="rgba(106,220,255,0.5)"/>
    <path id="Path_47" data-name="Path 47" d="M31,23h7.708v7.708H31Z" transform="translate(7.118 4.602)" fill="rgba(106,220,255,0.5)"/>
    <path id="Path_48" data-name="Path 48" d="M42,23h7.708v7.708H42Z" transform="translate(10.576 4.602)" fill="rgba(106,220,255,0.5)"/>
    <path id="Path_49" data-name="Path 49" d="M9,34h7.708v7.708H9Z" transform="translate(-0.008 8.061)" fill="rgba(106,220,255,0.5)"/>
    <path id="Path_50" data-name="Path 50" d="M20,34h7.708v7.708H20Z" transform="translate(3.659 8.061)" fill="rgba(106,220,255,0.5)"/>
    <path id="Path_51" data-name="Path 51" d="M31,34h7.708v7.708H31Z" transform="translate(7.118 8.061)" fill="rgba(106,220,255,0.5)"/>
    <path id="Path_52" data-name="Path 52" d="M42,34h7.708v7.708H42Z" transform="translate(10.576 8.061)" fill="rgba(106,220,255,0.5)"/>
    <path id="Path_53" data-name="Path 53" d="M9,45h7.708v7.708H9Z" transform="translate(-0.008 11.519)" fill="rgba(106,220,255,0.5)"/>
    <path id="Path_54" data-name="Path 54" d="M20,45h7.708v7.708H20Z" transform="translate(3.659 11.519)" fill="rgba(106,220,255,0.5)"/>
    <path id="Path_55" data-name="Path 55" d="M31,45h7.708v7.708H31Z" transform="translate(7.118 11.519)" fill="rgba(106,220,255,0.5)"/>
    <g id="Group_341" data-name="Group 341" transform="translate(0 0)">
      <path id="Path_56" data-name="Path 56" d="M72.82,51.974V15.115a6.565,6.565,0,0,0-6.557-6.557H63.639V5.934a3.934,3.934,0,1,0-7.869,0V8.557H49.213V5.934a3.934,3.934,0,1,0-7.869,0V8.557H33.475V5.934a3.934,3.934,0,0,0-7.869,0V8.557H19.049V5.934a3.934,3.934,0,1,0-7.869,0V8.557H8.557A6.565,6.565,0,0,0,2,15.115V67.574a6.565,6.565,0,0,0,6.557,6.557h44.1A15.725,15.725,0,1,0,72.82,51.974ZM58.393,5.934a1.311,1.311,0,1,1,2.623,0V13.8a1.311,1.311,0,1,1-2.623,0Zm-14.426,0a1.311,1.311,0,1,1,2.623,0V13.8a1.311,1.311,0,1,1-2.623,0Zm-15.738,0a1.311,1.311,0,1,1,2.623,0V13.8a1.311,1.311,0,1,1-2.623,0Zm-14.426,0a1.311,1.311,0,1,1,2.623,0V13.8a1.311,1.311,0,1,1-2.623,0ZM8.557,11.18H11.18V13.8a3.934,3.934,0,0,0,7.869,0V11.18h6.557V13.8a3.934,3.934,0,0,0,7.869,0V11.18h7.869V13.8a3.934,3.934,0,1,0,7.869,0V11.18H55.77V13.8a3.934,3.934,0,0,0,7.869,0V11.18h2.623A3.939,3.939,0,0,1,70.2,15.115v6.557H4.623V15.115A3.939,3.939,0,0,1,8.557,11.18Zm0,60.328a3.939,3.939,0,0,1-3.934-3.934V24.3H70.2V51.042a14.976,14.976,0,0,0-6.557-.281V43.967a1.311,1.311,0,0,0-1.311-1.311H54.459a1.311,1.311,0,0,0-1.311,1.311v7.869a1.311,1.311,0,0,0,1.311,1.311h3.122a15.649,15.649,0,0,0-6.139,18.361ZM61.016,50.525H55.77V45.279h5.246Zm5.246,28.852A13.115,13.115,0,1,1,79.377,66.262,13.13,13.13,0,0,1,66.262,79.377Z" transform="translate(-2 -2)" fill="#0d0f23"/>
      <path id="Path_57" data-name="Path 57" d="M53.886,51.064V43H51.316v8.064a2.453,2.453,0,0,0-1.246,2.593l-4.7,3.755,1.606,2.007,4.691-3.753a2.56,2.56,0,0,0,2.214-4.6Z" transform="translate(11.677 11.307)" fill="#0d0f23"/>
      <path id="Path_58" data-name="Path 58" d="M16.992,22H9.285A1.284,1.284,0,0,0,8,23.285v7.708a1.284,1.284,0,0,0,1.285,1.285h7.708a1.284,1.284,0,0,0,1.285-1.285V23.285A1.284,1.284,0,0,0,16.992,22Zm-1.285,7.708H10.569V24.569h5.139Z" transform="translate(-0.292 4.311)" fill="#0d0f23"/>
      <path id="Path_59" data-name="Path 59" d="M27.992,22H20.285A1.284,1.284,0,0,0,19,23.285v7.708a1.284,1.284,0,0,0,1.285,1.285h7.708a1.284,1.284,0,0,0,1.285-1.285V23.285A1.284,1.284,0,0,0,27.992,22Zm-1.285,7.708H21.569V24.569h5.139Z" transform="translate(3.364 4.311)" fill="#0d0f23"/>
      <path id="Path_60" data-name="Path 60" d="M38.992,22H31.285A1.284,1.284,0,0,0,30,23.285v7.708a1.284,1.284,0,0,0,1.285,1.285h7.708a1.284,1.284,0,0,0,1.285-1.285V23.285A1.284,1.284,0,0,0,38.992,22Zm-1.285,7.708H32.569V24.569h5.139Z" transform="translate(6.835 4.311)" fill="#0d0f23"/>
      <path id="Path_61" data-name="Path 61" d="M42.285,32.277h7.708a1.284,1.284,0,0,0,1.285-1.285V23.285A1.284,1.284,0,0,0,49.992,22H42.285A1.284,1.284,0,0,0,41,23.285v7.708A1.284,1.284,0,0,0,42.285,32.277Zm1.285-7.708h5.139v5.139H43.569Z" transform="translate(10.306 4.311)" fill="#0d0f23"/>
      <path id="Path_62" data-name="Path 62" d="M16.992,33H9.285A1.284,1.284,0,0,0,8,34.285v7.708a1.284,1.284,0,0,0,1.285,1.285h7.708a1.284,1.284,0,0,0,1.285-1.285V34.285A1.284,1.284,0,0,0,16.992,33Zm-1.285,7.708H10.569V35.569h5.139Z" transform="translate(-0.292 7.781)" fill="#0d0f23"/>
      <path id="Path_63" data-name="Path 63" d="M27.992,33H20.285A1.284,1.284,0,0,0,19,34.285v7.708a1.284,1.284,0,0,0,1.285,1.285h7.708a1.284,1.284,0,0,0,1.285-1.285V34.285A1.284,1.284,0,0,0,27.992,33Zm-1.285,7.708H21.569V35.569h5.139Z" transform="translate(3.364 7.781)" fill="#0d0f23"/>
      <path id="Path_64" data-name="Path 64" d="M38.992,33H31.285A1.284,1.284,0,0,0,30,34.285v7.708a1.284,1.284,0,0,0,1.285,1.285h7.708a1.284,1.284,0,0,0,1.285-1.285V34.285A1.284,1.284,0,0,0,38.992,33Zm-1.285,7.708H32.569V35.569h5.139Z" transform="translate(6.835 7.781)" fill="#0d0f23"/>
      <path id="Path_65" data-name="Path 65" d="M16.992,44H9.285A1.284,1.284,0,0,0,8,45.285v7.708a1.284,1.284,0,0,0,1.285,1.285h7.708a1.284,1.284,0,0,0,1.285-1.285V45.285A1.284,1.284,0,0,0,16.992,44Zm-1.285,7.708H10.569V46.569h5.139Z" transform="translate(-0.292 11.252)" fill="#0d0f23"/>
      <path id="Path_66" data-name="Path 66" d="M27.992,44H20.285A1.284,1.284,0,0,0,19,45.285v7.708a1.284,1.284,0,0,0,1.285,1.285h7.708a1.284,1.284,0,0,0,1.285-1.285V45.285A1.284,1.284,0,0,0,27.992,44Zm-1.285,7.708H21.569V46.569h5.139Z" transform="translate(3.364 11.252)" fill="#0d0f23"/>
      <path id="Path_67" data-name="Path 67" d="M38.992,44H31.285A1.284,1.284,0,0,0,30,45.285v7.708a1.284,1.284,0,0,0,1.285,1.285h7.708a1.284,1.284,0,0,0,1.285-1.285V45.285A1.284,1.284,0,0,0,38.992,44Zm-1.285,7.708H32.569V46.569h5.139Z" transform="translate(6.835 11.252)" fill="#0d0f23"/>
    </g>
  </g>
</svg>
