<svg id="clock" xmlns="http://www.w3.org/2000/svg" width="80" height="80" viewBox="0 0 80 80">
  <g id="Group_343" data-name="Group 343" transform="translate(0)">
    <ellipse id="Ellipse_44" data-name="Ellipse 44" cx="38.846" cy="38.846" rx="38.846" ry="38.846" transform="translate(1.154 1.154)" fill="rgba(255,153,51,0.5)"/>
    <path id="Path_68" data-name="Path 68" d="M244.811,7.5q-1.024,0-2.034.055c20.165,1.075,36.189,18.031,36.189,38.792s-16.025,37.717-36.189,38.791q1.01.054,2.034.055c21.11,0,38.223-17.392,38.223-38.846S265.921,7.5,244.811,7.5Z" transform="translate(-204.188 -6.346)" fill="#e98826"/>
    <ellipse id="Ellipse_45" data-name="Ellipse 45" cx="30.409" cy="30.409" rx="30.409" ry="30.409" transform="translate(9.591 9.591)" fill="#f4fbff"/>
    <path id="Path_69" data-name="Path 69" d="M242.525,62.357c-.825,0-1.641.036-2.449.1,15.3,1.272,27.336,14.354,27.336,30.305S255.38,121.8,240.076,123.071c.808.067,1.625.1,2.449.1,16.45,0,29.785-13.614,29.785-30.409S258.975,62.357,242.525,62.357Z" transform="translate(-201.902 -52.766)" fill="#daf1f4"/>
    <ellipse id="Ellipse_46" data-name="Ellipse 46" cx="3.079" cy="3.079" rx="3.079" ry="3.079" transform="translate(36.921 36.921)" fill="#135a70"/>
    <g id="Group_342" data-name="Group 342">
      <path id="Path_70" data-name="Path 70" d="M249.654,99.949a1.154,1.154,0,0,0,1.154-1.154V97.1a1.154,1.154,0,1,0-2.307,0V98.8A1.154,1.154,0,0,0,249.654,99.949Z" transform="translate(-209.654 -80.944)"/>
      <path id="Path_71" data-name="Path 71" d="M351.346,141.137a1.153,1.153,0,0,0-1.631,0l-1.2,1.2a1.154,1.154,0,0,0,1.631,1.632l1.2-1.2A1.154,1.154,0,0,0,351.346,141.137Z" transform="translate(-293.737 -118.783)"/>
      <path id="Path_72" data-name="Path 72" d="M390.382,248.5a1.154,1.154,0,1,0,0,2.307h1.693a1.154,1.154,0,0,0,0-2.307Z" transform="translate(-328.36 -209.654)"/>
      <path id="Path_73" data-name="Path 73" d="M349.571,348.518a1.154,1.154,0,1,0-1.631,1.632l1.2,1.2a1.154,1.154,0,0,0,1.632-1.632Z" transform="translate(-293.249 -293.737)"/>
      <path id="Path_74" data-name="Path 74" d="M247.683,390.383v1.693a1.154,1.154,0,1,0,2.307,0v-1.693a1.154,1.154,0,1,0-2.307,0Z" transform="translate(-208.964 -328.361)"/>
      <path id="Path_75" data-name="Path 75" d="M141.755,347.94l-1.2,1.2a1.154,1.154,0,0,0,1.631,1.632l1.2-1.2a1.154,1.154,0,0,0-1.631-1.632Z" transform="translate(-118.295 -293.25)"/>
      <path id="Path_76" data-name="Path 76" d="M97.1,247.684a1.154,1.154,0,0,0,0,2.307h1.693a1.154,1.154,0,1,0,0-2.307Z" transform="translate(-80.944 -208.965)"/>
      <path id="Path_77" data-name="Path 77" d="M143.965,141.757l-1.2-1.2a1.154,1.154,0,1,0-1.632,1.632l1.2,1.2a1.154,1.154,0,1,0,1.632-1.631Z" transform="translate(-118.783 -118.296)"/>
      <path id="Path_78" data-name="Path 78" d="M198.846,165.453l8.217,4.225a1.154,1.154,0,0,0,1.055-2.052L199.9,163.4a4.232,4.232,0,0,0-3-4.908V146.736a1.154,1.154,0,0,0-2.307,0v11.759a4.248,4.248,0,0,0-2.918,2.918h-5.726a1.154,1.154,0,1,0,0,2.307h5.726a4.228,4.228,0,0,0,7.163,1.733Zm-3.091-.961a1.925,1.925,0,1,1,1.925-1.925A1.928,1.928,0,0,1,195.755,164.491Z" transform="translate(-155.732 -122.677)"/>
      <path id="Path_79" data-name="Path 79" d="M116.806,85.24a1.177,1.177,0,0,0,1.084-1.263,31.563,31.563,0,1,0,0,4.885,1.177,1.177,0,0,0-2.347-.18,29.206,29.206,0,1,1,0-4.526,1.175,1.175,0,0,0,1.264,1.083Z" transform="translate(-46.419 -46.419)"/>
      <path id="Path_80" data-name="Path 80" d="M165.11,11.716A40.329,40.329,0,0,0,115.03,6.31a1.169,1.169,0,0,0-.355,1.619,1.181,1.181,0,0,0,1.626.353,37.967,37.967,0,0,1,47.144,5.09A37.325,37.325,0,0,1,174.524,40a37.87,37.87,0,0,1-48.807,36.042,1.172,1.172,0,1,0-.683,2.243A40.226,40.226,0,0,0,176.878,40,39.649,39.649,0,0,0,165.11,11.716Z" transform="translate(-96.878 0)"/>
      <path id="Path_81" data-name="Path 81" d="M24.419,122.639a38.126,38.126,0,0,1-8.645-63.677,1.19,1.19,0,0,0,.154-1.654,1.139,1.139,0,0,0-1.624-.157,40.5,40.5,0,0,0,9.183,67.639,1.131,1.131,0,0,0,.465.1,1.153,1.153,0,0,0,1.056-.7,1.184,1.184,0,0,0-.589-1.55Z" transform="translate(0 -48.132)"/>
    </g>
  </g>
</svg>
