<svg id="diet" xmlns="http://www.w3.org/2000/svg" width="80" height="80" viewBox="0 0 80 80">
  <path id="Path_82" data-name="Path 82" d="M8.306,20.336V5.667a2.653,2.653,0,1,1,5.306,0v0a2.653,2.653,0,1,1,5.306,0V23a5.32,5.32,0,0,1-5.306,5.334V77.68a2.653,2.653,0,1,1-5.306,0V28.338A5.32,5.32,0,0,1,3,23V5.667a2.653,2.653,0,1,1,5.306,0Z" transform="translate(-1.673 -1.673)" fill="#fff"/>
  <path id="Path_83" data-name="Path 83" d="M63.612,77.68V3a12.034,12.034,0,0,0-7.451,9.8L53,40.34l5.306,6.668V77.68a2.653,2.653,0,1,0,5.306,0Z" transform="translate(15.061 -1.673)" fill="#fff"/>
  <ellipse id="Ellipse_47" data-name="Ellipse 47" cx="20.5" cy="21.5" rx="20.5" ry="21.5" transform="translate(22.663 7.591)" fill="rgba(255,153,51,0.5)"/>
  <path id="Path_84" data-name="Path 84" d="M56.785,51c-3.535,0-6.569,1.638-7.9,3.98H17.653a2.653,2.653,0,1,0,0,5.306H48.884c1.33,2.341,4.366,3.98,7.9,3.98,4.762,0,8.622-2.97,8.622-6.633S61.547,51,56.785,51Z" transform="translate(2.487 14.409)" fill="#fff"/>
  <path id="Path_85" data-name="Path 85" d="M40.877,23,64.754,52.183H17Z" transform="translate(3.307 5.083)" fill="#135a70"/>
  <g id="Group_344" data-name="Group 344" transform="translate(0 0)">
    <path id="Path_86" data-name="Path 86" d="M7.306,29.865V78a3.98,3.98,0,1,0,7.959,0V29.865a6.67,6.67,0,0,0,5.306-6.532V6a4,4,0,0,0-3.98-4,3.943,3.943,0,0,0-2.653,1.04,3.9,3.9,0,0,0-5.306,0A3.943,3.943,0,0,0,5.98,2,4,4,0,0,0,2,6V23.333A6.669,6.669,0,0,0,7.306,29.865ZM4.653,6A1.327,1.327,0,1,1,7.306,6V20.667H9.959V6a1.327,1.327,0,1,1,2.653,0V20.667h2.653V6a1.327,1.327,0,1,1,2.653,0V23.333a4,4,0,0,1-3.98,4,1.329,1.329,0,0,0-1.327,1.333V78a1.327,1.327,0,1,1-2.653,0V28.667a1.329,1.329,0,0,0-1.327-1.333,4,4,0,0,1-3.98-4Z" transform="translate(-2 -2)" fill="#0d1030"/>
    <path id="Path_87" data-name="Path 87" d="M64.683,2.229a1.323,1.323,0,0,0-1.236-.135A13.347,13.347,0,0,0,55.17,12.98L52.009,40.513a1.339,1.339,0,0,0,.281.985l5.016,6.3V78a3.98,3.98,0,1,0,7.959,0V3.333a1.337,1.337,0,0,0-.582-1.1ZM62.612,78a1.327,1.327,0,1,1-2.653,0V47.333a1.337,1.337,0,0,0-.291-.833l-4.961-6.233,3.1-26.981a10.7,10.7,0,0,1,4.807-7.771Z" transform="translate(14.735 -2)" fill="#0d1030"/>
    <path id="Path_88" data-name="Path 88" d="M23,27.592h2.653A11.951,11.951,0,0,1,37.592,15.653V13A14.609,14.609,0,0,0,23,27.592Z" transform="translate(5.032 1.684)" fill="#0d1030"/>
    <path id="Path_89" data-name="Path 89" d="M39.248,14.143a14.375,14.375,0,0,0-2.921-.923l-.525,2.6a11.832,11.832,0,0,1,2.385.752Z" transform="translate(9.278 1.744)" fill="#0d1030"/>
    <path id="Path_90" data-name="Path 90" d="M14,57.959a3.984,3.984,0,0,0,3.98,3.98h30.51a10.631,10.631,0,0,0,8.622,3.98c5.486,0,9.949-3.57,9.949-7.959S62.6,50,57.112,50a10.631,10.631,0,0,0-8.622,3.98H17.98A3.984,3.984,0,0,0,14,57.959Zm3.98-1.326H49.212a1.327,1.327,0,0,0,1.153-.671c1.142-2.01,3.79-3.308,6.747-3.308,4.022,0,7.3,2.38,7.3,5.306s-3.274,5.306-7.3,5.306c-2.957,0-5.6-1.3-6.747-3.308a1.327,1.327,0,0,0-1.153-.671H17.98a1.327,1.327,0,1,1,0-2.653Z" transform="translate(2.327 14.082)" fill="#0d1030"/>
    <path id="Path_91" data-name="Path 91" d="M16.129,57.976a1.325,1.325,0,0,0,1.2.757H65.081a1.327,1.327,0,0,0,1.027-2.166l-9.64-11.782a22.557,22.557,0,1,0-31.71,1.445L16.3,56.568a1.325,1.325,0,0,0-.171,1.409ZM19.98,29.551a19.9,19.9,0,1,1,34.8,13.166L42.232,27.386a1.372,1.372,0,0,0-2.055,0L26.437,44.177a19.753,19.753,0,0,1-6.457-14.626Zm21.224.768L62.282,56.081H20.125Z" transform="translate(2.981 -0.367)" fill="#0d1030"/>
  </g>
</svg>
