<svg id="healthcare" xmlns="http://www.w3.org/2000/svg" width="80" height="80.379" viewBox="0 0 80 80.379">
  <g id="healthcare-covid19-coronavirus-hand-hearth" transform="translate(0 0)">
    <path id="Path_92" data-name="Path 92" d="M19.129,35.3,13.119,17.992A4.145,4.145,0,0,0,8.4,14.915a3.989,3.989,0,0,0-3.024,4.921l6.182,19.088Z" transform="translate(-1.26 2.253)" fill="#ffac96"/>
    <path id="Path_93" data-name="Path 93" d="M48.29,35.3,54.3,17.992a4.145,4.145,0,0,1,4.722-3.077,3.989,3.989,0,0,1,3.024,4.921L55.864,38.925Z" transform="translate(13.842 2.253)" fill="#ffac96"/>
    <path id="Path_94" data-name="Path 94" d="M32.166,41.176,20.44,34.3a3.972,3.972,0,0,0-5.041.9L11.119,21.992A4.145,4.145,0,0,0,6.4,18.915a3.989,3.989,0,0,0-3.024,4.921l5.77,21.529a5.237,5.237,0,0,0,1.605,2.6l8.967,7.972A5.306,5.306,0,0,1,21.493,59.9v4.245H37.411V50.332a10.612,10.612,0,0,0-5.246-9.156Z" transform="translate(-1.913 3.922)" fill="#ffbcab"/>
    <path id="Path_95" data-name="Path 95" d="M66.014,18.915a4.145,4.145,0,0,0-4.722,3.077L57.007,35.2a3.972,3.972,0,0,0-5.041-.9L40.24,41.176A10.612,10.612,0,0,0,35,50.332V64.149H50.918V59.9A5.306,5.306,0,0,1,52.7,55.938l8.967-7.972a5.237,5.237,0,0,0,1.605-2.6l5.77-21.529a3.989,3.989,0,0,0-3.024-4.921Z" transform="translate(9.503 3.922)" fill="#ffbcab"/>
    <path id="Path_96" data-name="Path 96" d="M34,53V63.612H52.571V53H34Z" transform="translate(8.86 15.44)" fill="#135a70"/>
    <path id="Path_97" data-name="Path 97" d="M34.571,53H16V63.612H34.571Z" transform="translate(2.569 15.44)" fill="#135a70"/>
    <path id="Path_98" data-name="Path 98" d="M56.037,23.575l-.965.942L37.772,41.4l-17.3-16.886-.965-.942a11.733,11.733,0,0,1,0-16.882,12.445,12.445,0,0,1,17.3.007l.963.944.965-.942a12.44,12.44,0,0,1,17.3-.009,11.737,11.737,0,0,1,.007,16.884Z" transform="translate(2.228 -1.871)" fill="rgba(255,153,51,0.5)"/>
    <path id="Path_99" data-name="Path 99" d="M50.155,6.7a11.806,11.806,0,0,0-9.774-3.421,11.931,11.931,0,0,1,7.121,20.3l-.942.942L31,40.077,32.327,41.4,49.213,24.517l.942-.942A11.939,11.939,0,0,0,50.155,6.7Z" transform="translate(7.859 -1.871)" fill="#e98623"/>
    <path id="Path_100" data-name="Path 100" d="M36.612,25.918V20.612h5.306V15.306H36.612V10H31.306v5.306H26v5.306h5.306v5.306Z" transform="translate(6.041 0.349)" fill="#f1f2f2"/>
    <path id="Path_101" data-name="Path 101" d="M53.118,34.225l-8.866,4.908a1.149,1.149,0,1,0,1.149,1.99l7.718-4.245a3.98,3.98,0,0,0,1.75-4.787A3.941,3.941,0,0,1,53.118,34.225Z" transform="translate(12.141 8.156)" fill="#ffac96"/>
    <path id="Path_102" data-name="Path 102" d="M13.694,34.225l8.866,4.908a1.149,1.149,0,1,1-1.149,1.99l-7.718-4.245a3.98,3.98,0,0,1-1.75-4.787,3.941,3.941,0,0,0,1.75,2.134Z" transform="translate(1.047 8.156)" fill="#ffac96"/>
    <g id="Group_345" data-name="Group 345">
      <path id="Path_103" data-name="Path 103" d="M42.245,14.306h-3.98v-3.98A1.327,1.327,0,0,0,36.939,9H31.633a1.327,1.327,0,0,0-1.327,1.327v3.98h-3.98A1.327,1.327,0,0,0,25,15.633v5.306a1.327,1.327,0,0,0,1.327,1.327h3.98v3.98a1.327,1.327,0,0,0,1.327,1.327h5.306a1.327,1.327,0,0,0,1.327-1.327v-3.98h3.98a1.327,1.327,0,0,0,1.327-1.327V15.633A1.327,1.327,0,0,0,42.245,14.306Zm-1.327,5.306h-3.98a1.327,1.327,0,0,0-1.327,1.327v3.98H32.959v-3.98a1.327,1.327,0,0,0-1.327-1.327h-3.98V16.959h3.98a1.327,1.327,0,0,0,1.327-1.327v-3.98h2.653v3.98a1.327,1.327,0,0,0,1.327,1.327h3.98Z" transform="translate(5.714 0.022)" fill="#231f20"/>
      <path id="Path_104" data-name="Path 104" d="M68.458,19.833a6.074,6.074,0,0,0,.04-.7,5.333,5.333,0,0,0-4.218-5.187,5.4,5.4,0,0,0-6.235,3.94L52.208,34.677a2.164,2.164,0,0,0-.252.119L40.229,41.668a11.961,11.961,0,0,0-5.9,10.294v12.5A1.327,1.327,0,0,0,33,65.784V76.4a1.327,1.327,0,0,0,1.327,1.327H52.9A1.327,1.327,0,0,0,54.224,76.4V65.784A1.327,1.327,0,0,0,52.9,64.457V61.539a4.031,4.031,0,0,1,1.327-2.971L63.191,50.6a6.541,6.541,0,0,0,2.016-3.25l5.757-21.529a5.246,5.246,0,0,0,.186-1.38,5.331,5.331,0,0,0-2.693-4.6Zm-7.879-1.167a2.8,2.8,0,0,1,3.157-2.122,2.653,2.653,0,0,1,2.109,2.587v.027a5.439,5.439,0,0,0-5.16,4.059l-3.7,11.421a5.571,5.571,0,0,0-1.778-.5Zm-9.007,56.4H35.653V67.11H51.571ZM68.4,25.126l-5.77,21.543a3.954,3.954,0,0,1-1.194,1.937l-8.98,7.972a6.707,6.707,0,0,0-2.215,4.961v2.918H36.98v-12.5a9.355,9.355,0,0,1,4.59-8.012l11.713-6.858a2.653,2.653,0,0,1,3.635.968,2.733,2.733,0,0,1,.265,2.016,2.653,2.653,0,0,1-1.247,1.605l-7.6,4.391a1.327,1.327,0,0,0,1.327,2.295l7.6-4.391a5.237,5.237,0,0,0,2.481-3.223,5.315,5.315,0,0,0-.531-4.019l-.08-.119,4.1-12.642a2.8,2.8,0,0,1,3.157-2.122A2.653,2.653,0,0,1,68.5,24.436a2.285,2.285,0,0,1-.093.69Z" transform="translate(8.85 2.656)" fill="#231f20"/>
      <path id="Path_105" data-name="Path 105" d="M39.064,64.456V51.96a11.961,11.961,0,0,0-5.9-10.294L21.435,34.782c-.08-.04-.172-.066-.252-.106l-5.8-16.7a5.448,5.448,0,0,0-6.274-4.033,5.333,5.333,0,0,0-4.218,5.187,6.072,6.072,0,0,0,.04.7,5.331,5.331,0,0,0-2.693,4.6,5.865,5.865,0,0,0,.172,1.38l5.77,21.516A6.521,6.521,0,0,0,10.2,50.594l8.954,7.972a4,4,0,0,1,1.34,2.971v2.918a1.327,1.327,0,0,0-1.327,1.327V76.395a1.327,1.327,0,0,0,1.327,1.326H39.064a1.327,1.327,0,0,0,1.327-1.326V65.782A1.327,1.327,0,0,0,39.064,64.456ZM7.546,19.129a2.653,2.653,0,0,1,2.1-2.587,2.867,2.867,0,0,1,3.21,2.215l5.333,15.374a5.571,5.571,0,0,0-1.778.5L12.733,23.281a5.5,5.5,0,0,0-5.187-4.125ZM20.917,56.577,11.95,48.6a3.933,3.933,0,0,1-1.194-1.95L4.973,25.125a2.813,2.813,0,0,1-.08-.69,2.653,2.653,0,0,1,2.1-2.587,2.844,2.844,0,0,1,3.2,2.189l4.072,12.575-.08.119a5.315,5.315,0,0,0-.531,4.019,5.237,5.237,0,0,0,2.481,3.223l7.6,4.391a1.327,1.327,0,0,0,1.327-2.295l-7.6-4.391a2.653,2.653,0,0,1-1.247-1.605,2.733,2.733,0,0,1,.265-2.016,2.653,2.653,0,0,1,3.621-.982l11.726,6.871a9.355,9.355,0,0,1,4.59,8.012v12.5H23.146V61.538a6.672,6.672,0,0,0-2.229-4.961Zm16.82,18.492H21.819V67.109H37.737Z" transform="translate(-2.24 2.657)" fill="#231f20"/>
      <path id="Path_106" data-name="Path 106" d="M57.3,6.09a13.786,13.786,0,0,0-19.2,0,13.783,13.783,0,0,0-19.2,0,13.061,13.061,0,0,0,0,18.749l18.24,17.828a1.379,1.379,0,0,0,1.919,0L57.3,24.84a13.062,13.062,0,0,0,0-18.75ZM38.1,39.855,20.816,22.964A10.438,10.438,0,0,1,18.469,11.4a10.979,10.979,0,0,1,17.7-3.433l.964.942a1.379,1.379,0,0,0,1.919,0l.966-.944a11.026,11.026,0,0,1,15.355,0,10.443,10.443,0,0,1,0,15Z" transform="translate(1.904 -2.198)" fill="#231f20"/>
    </g>
  </g>
</svg>
